<svg width="891" height="599" viewBox="0 0 891 599" fill="none" xmlns="http://www.w3.org/2000/svg">
<path fill-rule="evenodd" clip-rule="evenodd" d="M265.529 98.0818C305.666 52.1704 365.834 30.8257 422.139 23.3766C450.174 19.6676 476.898 19.4569 499.09 21.2492C521.517 23.0605 538.56 26.8564 547.58 30.6997L548.125 30.9319L548.693 31.0981C588.525 42.7459 615.096 55.9812 637.033 74.0212C658.768 91.8953 676.537 114.948 698.127 147.459C715.584 228.008 722.228 286.65 713.099 336.245C704.006 385.644 679.035 427.14 630.643 472.721L643.002 488.351C734.772 427.889 775.445 406.071 827.918 390.065L828.344 389.935L828.756 389.768C844.23 383.496 853.382 383.395 858.513 384.872C863.11 386.196 865.865 389.192 867.698 393.593C869.661 398.304 870.268 404.091 870.239 409.177C870.227 411.35 870.1 413.25 869.965 414.679C869.776 414.891 869.574 415.117 869.36 415.356C869.172 415.568 868.973 415.789 868.766 416.021L868.333 416.504C865.945 419.17 862.458 423.036 858.08 427.818C849.322 437.385 837.01 450.606 822.799 465.216C794.254 494.561 758.494 529.044 728.593 550.931L740.407 567.069C771.751 544.126 808.492 508.608 837.135 479.161C851.519 464.374 863.973 451.001 872.832 441.323C877.263 436.483 880.799 432.563 883.23 429.85C884.445 428.493 885.385 427.437 886.023 426.718C886.199 426.521 886.351 426.349 886.48 426.203L886.751 425.896L886.939 425.683L886.988 425.628L887.001 425.613L887.005 425.609C887.006 425.607 887.007 425.607 879.5 419L887.007 425.607L888.87 423.489L889.353 420.71L879.5 419C889.353 420.71 889.354 420.705 889.354 420.7L889.356 420.689L889.361 420.663L889.373 420.591C889.382 420.536 889.394 420.464 889.407 420.377C889.415 420.331 889.423 420.281 889.431 420.227L889.45 420.1L889.462 420.02C889.478 419.917 889.494 419.803 889.512 419.679C889.594 419.098 889.699 418.288 889.803 417.291C890.011 415.303 890.221 412.527 890.239 409.29C890.274 402.989 889.596 394.15 886.16 385.902C882.595 377.343 875.837 369.047 864.046 365.653C852.879 362.438 838.902 364.139 821.662 371.063C780.404 383.688 746.127 399.856 693.048 432.518C713.73 403.393 726.589 373.442 732.769 339.865C742.738 285.704 735.096 223.191 717.271 141.371L716.872 139.543L715.839 137.982C693.563 104.318 674.231 78.7174 649.736 58.5737C625.206 38.4006 596.093 24.1718 554.854 12.0624C542.895 7.0988 523.624 3.16562 500.7 1.31415C477.177 -0.585743 449.031 -0.355461 419.516 3.54934C361.164 11.2692 296.061 33.5625 251.484 83.769C246.382 87.0718 240.756 92.437 235.118 99.0391C228.767 106.476 221.902 116.073 215.172 127.525C201.711 150.432 188.575 181.126 181.212 217.481C168.75 279.012 172.901 356.47 219.429 439.26C173.198 408.071 131.137 389.924 61.6461 370.856L60.7416 370.608L59.8068 370.533C47.7446 369.556 37.4293 369.512 29.0063 370.961C20.5551 372.416 12.858 375.578 7.55414 382.003C2.22867 388.454 0.690598 396.526 0.951771 404.802C1.21107 413.019 3.27262 422.576 6.39989 433.3L7.16595 435.927L9.16278 437.797C83.178 507.145 128.716 538.069 215.177 579.517L223.823 561.483C140.029 521.312 96.2119 491.737 24.8556 425.091C22.3707 416.173 21.1054 409.356 20.9418 404.172C20.7645 398.552 21.912 396.026 22.9779 394.735C24.0653 393.418 26.4652 391.693 32.3981 390.672C38.1975 389.674 46.2635 389.545 57.2654 390.394C144.88 414.508 186.406 436.665 251.837 487.875L266.005 474.006C194.655 378.721 187.093 289.197 200.814 221.451C207.703 187.438 219.984 158.812 232.415 137.658C238.631 127.081 244.831 118.463 250.327 112.028C255.971 105.418 260.414 101.653 262.999 100.161L264.437 99.331L265.529 98.0818ZM321 227C334.807 227 346 217.374 346 205.5C346 193.626 334.807 184 321 184C307.193 184 296 193.626 296 205.5C296 217.374 307.193 227 321 227ZM552 205.5C552 217.374 540.807 227 527 227C513.193 227 502 217.374 502 205.5C502 193.626 513.193 184 527 184C540.807 184 552 193.626 552 205.5ZM384.481 282.14C396.022 306.505 411.985 320.065 429.049 319.686C446.129 319.307 460.867 305.046 470.142 281.857L460.858 278.143C452.133 299.954 439.871 309.443 428.826 309.689C417.765 309.935 404.478 300.995 393.519 277.86L384.481 282.14ZM479.119 504.12C481.122 505.703 482.427 507.854 483.027 510.252C484.032 514.271 481.588 518.343 477.57 519.348C474.565 520.099 471.53 518.922 469.77 516.6C469.24 516.684 468.618 516.819 467.911 517.013C464.183 518.038 460.204 520.093 459.315 520.659C454.706 523.592 453.179 525.442 452.467 526.952C451.733 528.509 451.335 530.803 451.569 535.816C451.808 535.967 452.201 536.177 452.823 536.432C455.162 537.391 458.827 538.077 463.425 538.443C470.119 538.977 476.91 538.754 481.994 538.587C483.973 538.522 485.694 538.466 487.049 538.466C491.191 538.466 494.549 541.824 494.549 545.966C494.549 550.108 491.191 553.466 487.049 553.466C486.31 553.466 485.108 553.505 483.573 553.556C478.533 553.722 469.899 554.007 462.234 553.396C457.182 552.994 451.656 552.165 447.133 550.311C442.782 548.527 437.037 544.718 436.628 537.343C436.299 531.428 436.442 525.771 438.899 520.558C441.41 515.228 445.786 511.488 451.262 508.004C453.27 506.726 458.612 504.013 463.936 502.55C466.518 501.84 469.978 501.167 473.333 501.683C475.104 501.955 477.214 502.614 479.119 504.12ZM451.245 535.555C451.248 535.555 451.255 535.559 451.266 535.568C451.285 535.584 451.314 535.614 451.347 535.66C451.313 535.633 451.288 535.611 451.272 535.594C451.255 535.577 451.247 535.565 451.244 535.56C451.243 535.557 451.243 535.556 451.245 535.555ZM400.617 459.385C407.514 457.433 418.369 458.79 429.285 462.631C434.567 464.49 439.497 466.806 443.515 469.247C447.619 471.739 450.299 474.076 451.608 475.818L451.608 475.818C451.629 475.859 451.744 476.094 451.874 476.654C452.056 477.433 452.184 478.452 452.288 479.841C452.317 480.229 452.352 480.784 452.39 481.396L452.391 481.401C452.453 482.395 452.525 483.538 452.597 484.363C452.734 485.922 452.971 487.902 453.573 489.818C454.462 492.648 455.192 494.943 455.781 496.265C455.927 496.592 456.265 497.33 456.816 498.084C457.082 498.447 457.68 499.212 458.666 499.901C459.706 500.629 461.742 501.634 464.375 501.16C466.923 500.701 468.425 499.136 469.087 498.265C469.748 497.394 470.076 496.574 470.218 496.184C470.511 495.381 470.631 494.654 470.676 494.367C470.845 493.311 470.926 492.406 471.001 491.557L471.002 491.555C471.142 489.979 471.266 488.598 471.898 486.807C473.438 482.451 477.273 478.347 483.618 474.954C489.926 471.58 498.108 469.261 507.018 468.236C525.246 466.139 543.832 469.692 553.406 477.263C558.453 481.255 561.351 488.05 561.489 493.326C561.654 499.626 560.001 503.266 557.144 506.862C555.55 508.87 553.554 510.881 550.979 513.373C550.572 513.768 550.151 514.173 549.717 514.59C547.5 516.726 544.967 519.166 542.354 521.939C535.417 529.302 529.133 537.112 523.101 544.786C521.988 546.202 520.885 547.611 519.789 549.012C514.886 555.277 510.108 561.382 505.063 567.272C503.73 568.828 502.404 570.854 501.281 572.605C501.096 572.893 500.913 573.178 500.732 573.463C500.598 573.673 500.465 573.882 500.333 574.091C499.445 575.486 498.581 576.844 497.657 578.199C496.419 580.017 495.285 581.509 494.247 582.602C493.332 583.566 492.818 583.867 492.722 583.924C492.701 583.936 492.7 583.936 492.719 583.93C488.814 585.311 486.769 589.597 488.15 593.502C489.532 597.407 493.818 599.452 497.722 598.071C500.874 596.955 503.347 594.802 505.123 592.932C506.979 590.978 508.641 588.719 510.054 586.645C511.123 585.076 512.171 583.429 513.087 581.988C513.374 581.537 513.648 581.106 513.906 580.704C515.099 578.844 515.899 577.68 516.456 577.03C521.737 570.863 526.764 564.44 531.676 558.162L531.685 558.15C532.76 556.777 533.829 555.411 534.894 554.056C540.889 546.429 546.825 539.068 553.272 532.225C555.612 529.741 557.845 527.59 560.057 525.458L560.059 525.456C560.51 525.021 560.961 524.588 561.411 524.152C563.987 521.659 566.622 519.046 568.889 516.193C573.755 510.068 576.748 503.038 576.484 492.933C576.239 483.582 571.528 472.471 562.71 465.498C548.712 454.427 525.426 451.019 505.303 453.334C495.037 454.515 484.924 457.246 476.545 461.726C472.44 463.921 468.602 466.623 465.38 469.881C464.933 468.856 464.375 467.848 463.673 466.904C460.726 462.942 456.189 459.395 451.301 456.426C446.297 453.387 440.41 450.645 434.264 448.482C422.325 444.28 407.885 441.739 396.532 444.952C376.744 450.553 360.433 465.167 352.581 481.744C344.653 498.483 344.948 518.673 361.248 532.654C375.816 545.149 391.513 554.836 407.723 564.839L407.743 564.852C411.416 567.118 415.114 569.4 418.832 571.736C421.481 573.399 425.294 575.346 429.208 577.309C429.773 577.592 430.344 577.878 430.92 578.166L431.741 578.576L431.752 578.581C435.069 580.238 438.535 581.969 441.924 583.762C446.201 586.024 450.103 588.256 453.132 590.354C454.642 591.401 455.812 592.331 456.657 593.128C457.074 593.521 457.368 593.842 457.567 594.087C457.688 594.237 457.757 594.337 457.79 594.389C457.808 594.417 457.816 594.431 457.816 594.431L457.814 594.428C459.708 598.112 464.229 599.564 467.913 597.671C471.597 595.777 473.049 591.256 471.156 587.572C469.132 583.633 465.135 580.423 461.675 578.025C457.907 575.415 453.383 572.855 448.938 570.503C445.374 568.617 441.7 566.782 438.365 565.117C437.897 564.883 437.435 564.653 436.981 564.426C436.626 564.249 436.276 564.073 435.932 563.901C431.865 561.861 428.734 560.241 426.811 559.033C422.852 556.547 418.993 554.164 415.223 551.836L415.223 551.835C399.095 541.875 384.609 532.929 371.014 521.268C361.323 512.956 360.177 500.749 366.138 488.165C372.175 475.419 385.081 463.783 400.617 459.385Z" fill="black"/>
</svg>
